HIERARCHY
ROOT Hips
{
	OFFSET 0.000000 0.000000 0.000000
	CHANNELS 6 Xposition Yposition Zposition Zrotation Yrotation Xrotation 
	JOINT LHipJoint
	{
		OFFSET 0.000000 0.000000 0.000000
		CHANNELS 3 Zrotation Yrotation Xrotation
		JOINT LeftUpLeg
		{
			OFFSET 1.363060 -1.794630 0.839290
			CHANNELS 3 Zrotation Yrotation Xrotation
			JOINT LeftLeg
			{
				OFFSET 2.448110 -6.726130 0.000000
				CHANNELS 3 Zrotation Yrotation Xrotation
				JOINT LeftFoot
				{
					OFFSET 2.562200 -7.039590 0.000000
					CHANNELS 3 Zrotation Yrotation Xrotation
					JOINT LeftToeBase
					{
						OFFSET 0.157640 -0.433110 2.322550
						CHANNELS 3 Zrotation Yrotation Xrotation
						End Site
						{
							OFFSET 0.000000 0.000000 0.000000
						}
					}
				}
			}
		}
	}
	JOINT RHipJoint
	{
		OFFSET 0.000000 0.000000 0.000000
		CHANNELS 3 Zrotation Yrotation Xrotation
		JOINT RightUpLeg
		{
			OFFSET -1.305520 -1.794630 0.839290
			CHANNELS 3 Zrotation Yrotation Xrotation
			JOINT RightLeg
			{
				OFFSET -2.542530 -6.985550 0.000000
				CHANNELS 3 Zrotation Yrotation Xrotation
				JOINT RightFoot
				{
					OFFSET -2.568260 -7.056230 0.000000
					CHANNELS 3 Zrotation Yrotation Xrotation
					JOINT RightToeBase
					{
						OFFSET -0.164730 -0.452590 2.363150
						CHANNELS 3 Zrotation Yrotation Xrotation
						End Site
						{
							OFFSET 0.000000 0.000000 0.000000
						}
					}
				}
			}
		}
	}
	JOINT LowerBack
	{
		OFFSET 0.000000 0.000000 0.000000
		CHANNELS 3 Zrotation Yrotation Xrotation
		JOINT Spine
		{
			OFFSET 0.028270 2.035590 -0.193380
			CHANNELS 3 Zrotation Yrotation Xrotation
			JOINT Spine1
			{
				OFFSET 0.056720 2.048850 -0.042750
				CHANNELS 3 Zrotation Yrotation Xrotation
				JOINT Neck
				{
					OFFSET 0.000000 0.000000 0.000000
					CHANNELS 3 Zrotation Yrotation Xrotation
					JOINT Neck1
					{
						OFFSET -0.054170 1.746240 0.172020
						CHANNELS 3 Zrotation Yrotation Xrotation
						JOINT Head
						{
							OFFSET 0.104070 1.761360 -0.123970
							CHANNELS 3 Zrotation Yrotation Xrotation
							End Site
							{
								OFFSET 0.000000 0.000000 0.000000
							}
						}
					}
				}
				JOINT LeftShoulder
				{
					OFFSET 0.000000 0.000000 0.000000
					CHANNELS 3 Zrotation Yrotation Xrotation
					JOINT LeftArm
					{
						OFFSET 3.362410 1.200890 -0.311210
						CHANNELS 3 Zrotation Yrotation Xrotation
						JOINT LeftForeArm
						{
							OFFSET 4.983000 -0.000000 -0.000000
							CHANNELS 3 Zrotation Yrotation Xrotation
							JOINT LeftHand
							{
								OFFSET 3.483560 -0.000000 -0.000000
								CHANNELS 3 Zrotation Yrotation Xrotation
								JOINT LeftFingerBase
								{
									OFFSET 0.000000 0.000000 0.000000
									CHANNELS 3 Zrotation Yrotation Xrotation
									JOINT LeftHandIndex1
									{
										OFFSET 0.715260 -0.000000 -0.000000
										CHANNELS 3 Zrotation Yrotation Xrotation
										End Site
										{
											OFFSET 0.000000 0.000000 0.000000
										}
									}
								}
								JOINT LThumb
								{
									OFFSET 0.000000 0.000000 0.000000
									CHANNELS 3 Zrotation Yrotation Xrotation
									End Site
									{
										OFFSET 0.000000 0.000000 0.000000
									}
								}
							}
						}
					}
				}
				JOINT RightShoulder
				{
					OFFSET 0.000000 0.000000 0.000000
					CHANNELS 3 Zrotation Yrotation Xrotation
					JOINT RightArm
					{
						OFFSET -3.136600 1.374050 -0.404650
						CHANNELS 3 Zrotation Yrotation Xrotation
						JOINT RightForeArm
						{
							OFFSET -5.241900 -0.000000 -0.000000
							CHANNELS 3 Zrotation Yrotation Xrotation
							JOINT RightHand
							{
								OFFSET -3.444170 -0.000000 -0.000000
								CHANNELS 3 Zrotation Yrotation Xrotation
								JOINT RightFingerBase
								{
									OFFSET 0.000000 0.000000 0.000000
									CHANNELS 3 Zrotation Yrotation Xrotation
									JOINT RightHandIndex1
									{
										OFFSET -0.622530 -0.000000 -0.000000
										CHANNELS 3 Zrotation Yrotation Xrotation
										End Site
										{
											OFFSET 0.000000 0.000000 0.000000
										}
									}
								}
								JOINT RThumb
								{
									OFFSET 0.000000 0.000000 0.000000
									CHANNELS 3 Zrotation Yrotation Xrotation
									End Site
									{
										OFFSET 0.000000 0.000000 0.000000
									}
								}
							}
						}
					}
				}
			}
		}
	}
}
MOTION
Frames: 12
Frame Time: 0.008333
-8.224870 17.446392 3.125188 -2.049878 60.913872 0.704875 5.414271 1.719817 -0.997235 -15.651496 -7.070688 -12.695582 1.675301 12.065861 34.611091 0.182954 -0.425257 -6.322523 2.248700 -9.366000 -26.947200 -12.172754 -2.627073 -4.071194 37.149114 8.695786 14.802830 2.812870 0.285933 3.908894 0.288081 -15.098556 0.864636 -1.505000 7.748400 -21.952500 4.815334 0.551863 5.695378 1.516389 1.189679 -2.462569 -2.537268 0.208694 1.192734 -0.091219 -0.728075 -14.835013 7.512070 -1.244915 15.662557 1.418800 0.434800 12.650300 2.734356 -0.677683 -0.507104 -89.304488 2.079769 33.231411 18.892214 -27.152880 -5.555011 0.006599 -1.502344 -34.110015 34.517861 55.408865 30.479200 -7.125000 0.000000 0.000000 174.723300 1.348800 5.173200 -3.404092 1.018497 -0.777578 86.388189 -4.559110 18.800973 -17.072870 28.938876 -4.599571 0.544864 -0.268492 -0.861552 -21.602059 16.847090 -6.815100 7.125000 0.000000 0.000000 3.795400 -11.659800 2.956700 
-8.218862 17.462545 3.136712 -2.079624 61.000728 0.784919 5.397527 1.753303 -0.959480 -15.644325 -7.064835 -12.406524 1.521584 11.836741 33.892872 0.168349 -0.278763 -6.280494 2.188200 -9.247600 -26.573000 -12.101846 -2.625019 -4.029972 36.957281 8.641976 14.794898 2.863029 0.296565 3.895401 0.380736 -15.522102 -0.810914 -1.190600 6.924200 -19.491100 4.691406 0.510724 5.565087 1.460814 1.146676 -2.588947 -2.375585 0.162023 1.393747 -1.592016 -2.522159 -17.912472 7.138596 -3.167253 18.030509 1.582500 -0.451000 15.202700 2.593445 -0.604122 -0.633026 -89.100518 2.054683 33.353356 18.873130 -27.043561 -5.538315 0.004655 -1.514142 -34.233992 34.578014 55.383717 30.536700 -7.125000 0.000000 0.000000 174.755700 1.343700 5.141700 -3.542598 1.209138 -0.854739 86.593393 -4.506055 19.191407 -17.619410 29.621672 -4.862836 0.538863 -0.286401 -0.738216 -21.688680 17.015608 -6.914100 7.125000 0.000000 0.000000 3.754700 -11.451300 2.941000 
-8.215808 17.477910 3.146660 -2.098811 61.093885 0.907796 5.393671 1.768183 -0.967994 -15.637890 -7.157410 -12.140602 1.386704 11.644277 33.269763 0.150411 -0.121654 -6.192817 2.214800 -9.299900 -26.737900 -12.006673 -2.629024 -3.919486 36.840432 9.099901 13.588393 2.800025 -0.592585 6.038840 0.497241 -16.163859 -3.323522 -4.391000 12.663300 -38.120900 4.559730 0.511678 5.486156 1.446445 1.144144 -2.646905 -2.317643 0.156998 1.263262 -1.826570 -2.731577 -18.005236 7.140264 -3.380416 17.975707 1.606700 -0.571900 15.217100 2.584257 -0.606302 -0.635407 -88.980030 2.120698 33.344053 18.908270 -27.076674 -5.554224 0.002525 -1.513325 -34.285392 34.618479 55.303827 30.551800 -7.125000 0.000000 0.000000 174.798800 1.279000 5.105100 -3.562668 1.234242 -0.857832 86.708194 -4.555415 19.587046 -18.102077 30.218151 -5.098676 0.537102 -0.296137 -0.605054 -21.736660 17.165225 -6.991100 7.125000 0.000000 0.000000 3.734900 -11.277300 2.938800 
-8.219256 17.489926 3.156509 -2.193731 61.214178 0.933800 5.388635 1.783239 -0.969394 -15.556332 -7.230187 -11.907729 1.264032 11.451512 32.663794 0.136580 -0.066662 -5.993610 2.346900 -9.554000 -27.544200 -11.929777 -2.627886 -3.824429 36.830014 9.424120 12.600537 2.725744 -1.315214 7.770354 0.567095 -16.510976 -5.506184 -3.540500 11.522400 -34.062700 4.415615 0.454145 5.419894 1.474344 1.062531 -2.705210 -2.153260 0.110329 1.151815 -2.040381 -2.739125 -18.243455 7.117575 -3.299161 18.071572 1.658900 -0.566800 15.367100 2.587290 -0.616338 -0.643196 -89.001468 2.166912 33.082017 18.952915 -27.122577 -5.573687 -0.001949 -1.508980 -34.251950 34.412209 55.158482 30.318500 -7.125000 0.000000 0.000000 174.781500 1.086400 5.140100 -3.566735 1.256576 -0.868799 86.661026 -4.584781 20.235970 -18.565452 30.765878 -5.326384 0.535981 -0.297849 -0.595047 -21.829136 16.998678 -6.959100 7.125000 0.000000 0.000000 3.662900 -11.439100 2.869700 
-8.230976 17.502040 3.165472 -2.233899 61.376584 1.018690 5.375907 1.784838 -0.963997 -15.467410 -7.360829 -11.765355 1.155504 11.282406 32.123686 0.129059 -0.060391 -5.826941 2.465100 -9.774200 -28.248600 -11.873495 -2.630964 -3.752019 36.828172 9.552413 11.979313 2.683265 -1.722406 8.730142 0.594750 -16.619199 -7.274369 -2.727000 10.239500 -29.755700 4.225636 0.341240 5.365238 1.537265 0.900418 -2.775244 -1.952024 0.028579 0.975600 -1.898858 -2.428761 -18.159318 6.649666 -2.869528 18.013129 1.372400 -0.435400 15.294700 2.643373 -0.670080 -0.642239 -89.151480 2.204230 32.550346 18.961221 -27.140508 -5.579182 -0.005715 -1.503965 -34.126140 34.129119 55.116085 30.042800 -7.125000 0.000000 0.000000 174.701400 0.968000 5.230800 -3.514463 1.225643 -0.889942 86.485648 -4.625537 21.125617 -18.949513 31.192199 -5.514177 0.537937 -0.286380 -0.673805 -22.105648 16.346700 -6.794300 7.125000 0.000000 0.000000 3.432400 -12.105500 2.641200 
-8.245159 17.514943 3.172170 -2.227849 61.553730 1.126107 5.362389 1.783530 -0.958616 -15.422086 -7.607851 -11.582300 1.039319 11.109852 31.565271 0.112205 0.049026 -5.655206 2.514100 -9.863500 -28.535700 -11.814997 -2.632930 -3.677075 36.813858 9.678847 11.323183 2.630104 -2.148229 9.734969 0.603650 -16.694399 -9.113846 -1.920600 8.698800 -24.857500 4.023324 0.188691 5.323291 1.624528 0.684978 -2.844083 -1.692996 -0.079865 0.796680 -1.708331 -2.042890 -18.039443 6.135229 -2.338541 18.102019 1.068100 -0.252900 15.317700 2.709133 -0.723896 -0.645004 -89.410862 2.236429 31.932098 19.024044 -27.230750 -5.613630 -0.008055 -1.502677 -34.053479 34.305467 55.177310 30.221900 -7.125000 0.000000 0.000000 174.740000 1.069500 5.182900 -3.449409 1.188186 -0.915293 86.214356 -4.597494 22.055351 -19.190501 31.433787 -5.628504 0.543496 -0.266370 -0.773586 -22.603717 15.418005 -6.578100 7.125000 0.000000 0.000000 3.031800 -13.051300 2.272100 
-8.261214 17.527156 3.179360 -2.428054 61.740269 0.993004 5.357000 1.789301 -0.953710 -15.286986 -7.877987 -11.403177 0.950142 10.971807 31.126332 0.092358 0.190540 -5.471646 2.503100 -9.843600 -28.471800 -11.763540 -2.629067 -3.625894 36.925078 9.686302 10.874981 2.595077 -2.456575 10.454371 0.580575 -16.646196 -10.886435 -1.150700 6.811200 -19.157100 3.957844 0.105549 5.300113 1.675617 0.569015 -2.876341 -1.533790 -0.138162 0.716679 -1.800945 -1.921683 -18.044942 5.912129 -2.109880 18.075803 0.970500 -0.203400 15.303400 2.738805 -0.751016 -0.641626 -89.487096 2.191565 31.677958 19.199970 -27.445794 -5.701234 -0.006432 -1.502938 -34.125183 34.678092 55.261514 30.589600 -7.125000 0.000000 0.000000 174.836200 1.246400 5.071100 -3.424695 1.178446 -0.922466 86.103371 -4.479524 22.656739 -19.360675 31.611264 -5.709961 0.549003 -0.256108 -0.967619 -23.023960 14.984897 -6.529300 7.125000 0.000000 0.000000 2.716300 -13.471000 2.011100 
-8.283473 17.554439 3.187239 -2.760679 61.935150 0.769325 5.352709 1.792063 -0.955371 -15.072488 -8.101645 -11.305902 0.877645 10.858503 30.760372 0.077318 0.307603 -5.333490 2.473000 -9.788600 -28.294900 -11.673988 -2.619936 -3.574216 37.007335 9.616347 10.595231 2.558515 -2.666064 10.941505 0.428660 -15.803990 -13.412183 -0.168500 2.644400 -7.290300 4.032076 0.115407 5.277375 1.678395 0.582511 -2.887542 -1.572501 -0.127511 0.688829 -1.742343 -1.941391 -18.060023 5.756580 -2.164367 17.825593 0.836100 -0.249600 15.137700 2.755836 -0.774017 -0.631807 -89.383452 2.104025 31.636572 19.485100 -27.786402 -5.841653 -0.003237 -1.500497 -34.196115 34.955510 55.354592 30.870500 -7.125000 0.000000 0.000000 174.895700 1.406000 4.997500 -3.419790 1.170291 -0.920806 86.179013 -4.340988 23.004218 -19.507558 31.775625 -5.782413 0.554300 -0.250332 -1.320758 -23.363473 14.818091 -6.563900 7.125000 0.000000 0.000000 2.473200 -13.610200 1.823500 
-8.314006 17.546165 3.186648 -2.946476 62.105111 0.703758 5.348486 1.780626 -0.955898 -14.923234 -8.352161 -11.372266 0.827357 10.808797 30.554547 0.076762 0.409350 -5.508060 2.370500 -9.598600 -27.686500 -11.679535 -2.612776 -3.558296 37.172862 9.581129 10.288526 2.557215 -2.762088 11.121365 0.430665 -15.953121 -13.726646 -0.170400 2.659300 -7.331600 4.081773 0.160027 5.277959 1.650805 0.645691 -2.914244 -1.654957 -0.094425 0.616085 -1.797232 -2.015290 -18.100135 5.804264 -2.264866 17.631374 0.856000 -0.302800 15.022600 2.753157 -0.781314 -0.628855 -89.272402 2.018737 31.614169 19.787472 -28.135261 -5.987732 -0.004721 -1.494722 -34.199008 35.062126 55.280319 30.944500 -7.125000 0.000000 0.000000 174.957100 1.364700 4.940700 -3.434482 1.183322 -0.915808 86.316720 -4.182021 23.186012 -19.524955 31.789968 -5.789174 0.559823 -0.241317 -1.563606 -23.777519 14.481785 -6.544800 7.125000 0.000000 0.000000 2.166400 -13.927600 1.582400 
-8.349365 17.536316 3.185072 -3.148185 62.286770 0.596607 5.339574 1.767851 -0.949722 -14.755918 -8.675964 -11.452344 0.785542 10.783615 30.415475 0.085795 0.513099 -5.911587 2.201500 -9.273800 -26.655500 -11.692735 -2.606820 -3.557336 37.330144 9.453821 10.155257 2.584754 -2.718621 10.961617 0.438641 -16.087966 -13.819394 -0.181000 2.739900 -7.555500 4.136979 0.213873 5.335619 1.619807 0.725438 -2.945762 -1.745185 -0.053499 0.503173 -1.857568 -2.116971 -18.120642 5.865376 -2.401689 17.464328 0.883400 -0.367900 14.925600 2.747205 -0.787704 -0.627599 -89.132419 1.911848 31.667484 20.057276 -28.437741 -6.116182 -0.007532 -1.484689 -34.190076 34.746852 55.071390 30.587500 -7.125000 0.000000 0.000000 174.925200 1.082100 4.997800 -3.448255 1.202203 -0.912399 86.467845 -3.974658 23.219195 -19.379053 31.631784 -5.715441 0.545714 -0.263439 -1.643105 -22.804919 15.379763 -6.627700 7.125000 0.000000 0.000000 2.895900 -13.060500 2.169400 
-8.390043 17.529717 3.182118 -3.487842 62.506158 0.354973 5.340643 1.753862 -0.939783 -14.504844 -9.182224 -11.574476 0.766302 10.796499 30.382973 0.071383 0.709353 -5.965151 2.134900 -9.141700 -26.239500 -11.716226 -2.600720 -3.569583 37.533210 9.198169 10.218440 2.653109 -2.501505 10.370143 0.448794 -16.224587 -13.819473 -0.175500 2.698600 -7.440700 4.275389 0.243006 5.438838 1.602540 0.778205 -2.981824 -1.829357 -0.026983 0.380309 -2.021928 -2.238608 -18.267719 5.929072 -2.515404 17.454430 0.952900 -0.430100 14.977900 2.738190 -0.790258 -0.631906 -89.057413 1.835672 31.635471 20.393061 -28.812306 -6.281686 -0.005359 -1.478963 -34.200501 34.667742 55.073065 30.510700 -7.125000 0.000000 0.000000 174.896400 1.060500 5.028400 -3.462326 1.231796 -0.916292 86.528408 -3.803387 23.450482 -19.221641 31.481311 -5.642328 0.500488 -0.315487 -1.741069 -19.840594 17.350810 -6.408700 7.125000 0.000000 0.000000 5.028200 -11.296600 3.961500 
-8.436532 17.530505 3.178178 -3.529220 62.782057 0.423854 5.345608 1.727856 -0.935814 -14.389520 -9.819031 -11.693918 0.723623 10.785574 30.251115 0.024578 1.069157 -5.606642 2.156700 -9.185200 -26.376300 -11.726417 -2.601896 -3.571044 37.535143 8.949410 10.182018 2.709437 -2.294755 9.808018 0.451938 -16.298835 -13.900907 -0.154300 2.530900 -6.975300 4.303617 0.277161 5.545014 1.568708 0.834310 -3.028932 -1.941006 0.003497 0.210242 -1.991578 -2.313172 -18.278955 5.815875 -2.634751 17.287428 0.854100 -0.496500 14.883600 2.746056 -0.810918 -0.630879 -89.009044 1.797520 31.629976 20.819735 -29.295458 -6.499715 0.001344 -1.475835 -34.311453 34.955002 55.232163 30.818600 -7.125000 0.000000 0.000000 174.935400 1.284900 4.969300 -3.463725 1.241122 -0.920541 86.590889 -3.698457 23.698702 -19.086948 31.337330 -5.577503 0.469220 -0.341032 -1.756086 -17.968117 18.214839 -6.046800 7.125000 0.000000 0.000000 6.327200 -10.605700 5.086500 
